<svg width="45" height="51" viewBox="0 0 45 51" fill="none" xmlns="http://www.w3.org/2000/svg">
<path d="M5.625 44.625V40.375H39.375V44.625H5.625ZM5.625 36.125V14.875H24.375V36.125H5.625ZM5.625 10.625V6.375H39.375V10.625H5.625ZM9.375 31.875H20.625V19.125H9.375V31.875ZM28.125 36.125V31.875H39.375V36.125H28.125ZM28.125 27.625V23.375H39.375V27.625H28.125ZM28.125 19.125V14.875H39.375V19.125H28.125Z" fill="#408A7E"/>
<path d="M22.7778 16.5556V34.4444H7.22222V16.5556H22.7778ZM22.7778 14H7.22222C6 14 5 15.15 5 16.5556V34.4444C5 35.85 6 37 7.22222 37H22.7778C24 37 25 35.85 25 34.4444V16.5556C25 15.15 24 14 22.7778 14ZM17.3778 25.3211L14.0444 30.2661L11.6667 26.9567L8.33333 31.8889H21.6667L17.3778 25.3211Z" fill="#408A7E"/>
</svg>
