<svg width="32" height="31" viewBox="0 0 32 31" fill="none" xmlns="http://www.w3.org/2000/svg">
<path d="M26.1207 12.828C25.7246 13.0212 25.3239 13.0459 24.9187 12.902C24.5135 12.7582 24.2107 12.4838 24.0104 12.0788C23.8086 11.6733 23.7735 11.2677 23.9052 10.8621C24.0369 10.4564 24.3006 10.1577 24.6963 9.96587L27.4925 8.60214C27.8886 8.40895 28.2893 8.38427 28.6945 8.52812C29.0997 8.67197 29.4025 8.94637 29.6028 9.35134C29.8046 9.75681 29.8397 10.1624 29.708 10.5681C29.5763 10.9738 29.3126 11.2725 28.9169 11.4643L26.1207 12.828ZM29.84 22.3959L26.7483 21.7696C26.3034 21.6902 25.9627 21.4711 25.7262 21.1122C25.4896 20.7533 25.4048 20.3501 25.4716 19.9025C25.5385 19.4549 25.7464 19.1164 26.0955 18.8869C26.4446 18.6573 26.8416 18.5823 27.2865 18.6617L30.3782 19.288C30.8231 19.3674 31.1639 19.5865 31.4004 19.9454C31.6369 20.3043 31.7218 20.7075 31.6549 21.1551C31.5881 21.6027 31.3801 21.9412 31.031 22.1707C30.6819 22.4003 30.2849 22.4753 29.84 22.3959ZM20.7342 5.4959C20.5266 5.89351 20.2246 6.15938 19.828 6.29351C19.4315 6.42764 19.0336 6.38456 18.6344 6.16429C18.2352 5.94402 17.9639 5.63171 17.8206 5.22737C17.6773 4.82302 17.7094 4.42204 17.9169 4.02443L19.2992 1.21617C19.5067 0.818562 19.8088 0.552693 20.2054 0.418565C20.6019 0.284437 20.9998 0.327509 21.399 0.54778C21.7982 0.768051 22.0695 1.08036 22.2128 1.48471C22.3561 1.88905 22.324 2.29003 22.1165 2.68764L20.7342 5.4959ZM10.8203 30.9605L7.97145 25.2362L6.57333 25.9181C5.80436 26.2931 5.00626 26.3338 4.179 26.0401C3.35175 25.7464 2.74297 25.2062 2.35266 24.4197L0.928233 21.5575C0.536515 20.7704 0.475093 19.9628 0.743968 19.1345C1.01284 18.3062 1.53153 17.7053 2.30004 17.3317L7.89252 14.6042L11.2553 9.22952C11.5789 8.71602 12.0506 8.48601 12.6702 8.53948C13.2899 8.59295 13.7367 8.89374 14.0107 9.44186L20.0289 21.5344C20.3019 22.0829 20.2705 22.6169 19.9348 23.1363C19.5991 23.6557 19.1275 23.8858 18.5199 23.8264L12.1658 23.1906L10.7677 23.8725L13.6165 29.5967L10.8203 30.9605ZM20.8038 19.6003L16.032 10.0122C16.946 10.2778 17.8004 10.7284 18.5951 11.364C19.3898 11.9996 20.0298 12.8061 20.5151 13.7834C21.0017 14.7613 21.2575 15.7558 21.2823 16.7669C21.3071 17.778 21.1476 18.7225 20.8038 19.6003Z" fill="white"/>
</svg>
