<svg width="35" height="35" viewBox="0 0 35 35" fill="none" xmlns="http://www.w3.org/2000/svg">
<g clip-path="url(#clip0_446_495)">
<path d="M11.6662 12.8334H13.9996M20.9996 22.1667H23.3329M23.3329 11.6667L11.6662 23.3334M15.8686 1.84339L13.2342 4.47306C12.8025 4.90557 12.2167 5.14895 11.6056 5.14972H7.4569C6.84549 5.14972 6.25912 5.39261 5.82679 5.82494C5.39445 6.25727 5.15157 6.84364 5.15157 7.45506V11.6037C5.1508 12.2148 4.90741 12.8006 4.4749 13.2324L1.8429 15.8714C1.41074 16.3037 1.16797 16.89 1.16797 17.5012C1.16797 18.1125 1.41074 18.6987 1.8429 19.1311L4.47957 21.7654C4.69341 21.9793 4.86302 22.2332 4.97873 22.5127C5.09443 22.7921 5.15395 23.0916 5.1539 23.3941V27.5427C5.1539 28.8167 6.18524 29.8481 7.45924 29.8481H11.6079C12.2192 29.8481 12.8049 30.0907 13.2366 30.5247L15.8732 33.1591C16.3055 33.5912 16.8918 33.834 17.5031 33.834C18.1143 33.834 18.7006 33.5912 19.1329 33.1591L21.7672 30.5224C22.1994 30.0907 22.7851 29.8482 23.3959 29.8481H27.5446C28.156 29.8481 28.7423 29.6052 29.1747 29.1728C29.607 28.7405 29.8499 28.1541 29.8499 27.5427V23.3941C29.8499 22.7827 30.0926 22.1971 30.5266 21.7654L33.1609 19.1287C33.5931 18.6964 33.8358 18.1102 33.8358 17.4989C33.8358 16.8876 33.5931 16.3014 33.1609 15.8691L30.5242 13.2347C30.0926 12.8026 29.8501 12.2168 29.8499 11.6061V7.45739C29.8499 6.84598 29.607 6.25961 29.1747 5.82727C28.7423 5.39494 28.156 5.15206 27.5446 5.15206H23.3959C22.7848 5.15129 22.199 4.9079 21.7672 4.47539L19.1282 1.84339C18.6959 1.41123 18.1097 1.16846 17.4984 1.16846C16.8871 1.16846 16.3009 1.41123 15.8686 1.84339Z" stroke="#408A7E"/>
</g>
<defs>
<clipPath id="clip0_446_495">
<rect width="35" height="35" fill="white"/>
</clipPath>
</defs>
</svg>
