<svg width="32" height="31" viewBox="0 0 32 31" fill="none" xmlns="http://www.w3.org/2000/svg">
<path d="M25.899 12.7308C25.5029 12.924 25.1022 12.9487 24.697 12.8048C24.2919 12.661 23.9891 12.3866 23.7887 11.9816C23.5869 11.5762 23.5518 11.1706 23.6835 10.7649C23.8152 10.3592 24.0789 10.0605 24.4746 9.8687L27.2708 8.50497C27.667 8.31178 28.0676 8.2871 28.4728 8.43095C28.878 8.5748 29.1808 8.84921 29.3812 9.25417C29.583 9.65964 29.618 10.0652 29.4863 10.4709C29.3546 10.8766 29.0909 11.1753 28.6953 11.3671L25.899 12.7308ZM29.6183 22.2988L26.5267 21.6725C26.0817 21.593 25.741 21.3739 25.5045 21.015C25.268 20.6561 25.1831 20.2529 25.2499 19.8053C25.3168 19.3578 25.5247 19.0192 25.8738 18.7897C26.2229 18.5602 26.6199 18.4851 27.0649 18.5645L30.1565 19.1908C30.6014 19.2702 30.9422 19.4894 31.1787 19.8483C31.4152 20.2072 31.5001 20.6104 31.4332 21.0579C31.3664 21.5055 31.1584 21.844 30.8093 22.0736C30.4603 22.3031 30.0632 22.3782 29.6183 22.2988ZM20.5125 5.39873C20.305 5.79634 20.0029 6.06221 19.6063 6.19634C19.2098 6.33047 18.8119 6.2874 18.4127 6.06712C18.0135 5.84685 17.7422 5.53455 17.5989 5.1302C17.4556 4.72585 17.4877 4.32488 17.6952 3.92726L19.0775 1.11901C19.2851 0.721394 19.5871 0.455525 19.9837 0.321397C20.3803 0.187269 20.7781 0.230341 21.1774 0.450612C21.5766 0.670883 21.8478 0.983191 21.9911 1.38754C22.1345 1.79188 22.1024 2.19286 21.8948 2.59047L20.5125 5.39873ZM10.5986 30.8633L7.74977 25.139L6.35165 25.8209C5.58268 26.1959 4.78458 26.2366 3.95733 25.9429C3.13007 25.6492 2.52129 25.1091 2.13098 24.3225L0.706553 21.4604C0.314835 20.6733 0.253414 19.8656 0.522288 19.0373C0.791163 18.2091 1.30985 17.6081 2.07836 17.2345L7.67084 14.5071L11.0337 9.13235C11.3573 8.61885 11.8289 8.38884 12.4486 8.44231C13.0682 8.49578 13.515 8.79657 13.789 9.34469L19.8072 21.4372C20.0802 21.9858 20.0489 22.5198 19.7131 23.0392C19.3774 23.5586 18.9058 23.7886 18.2982 23.7292L11.9441 23.0934L10.546 23.7753L13.3949 29.4996L10.5986 30.8633ZM20.5821 19.5031L15.8103 9.91501C16.7243 10.1806 17.5787 10.6312 18.3734 11.2668C19.1681 11.9024 19.8081 12.7089 20.2934 13.6863C20.7801 14.6642 21.0358 15.6587 21.0606 16.6697C21.0854 17.6808 20.9259 18.6253 20.5821 19.5031Z" fill="#408A7E"/>
</svg>
