<svg width="39" height="41" viewBox="0 0 39 41" fill="none" xmlns="http://www.w3.org/2000/svg">
<path d="M8.125 34.1667C9.02246 34.1667 9.75 33.4018 9.75 32.4583C9.75 31.5148 9.02246 30.75 8.125 30.75C7.22754 30.75 6.5 31.5148 6.5 32.4583C6.5 33.4018 7.22754 34.1667 8.125 34.1667Z" fill="#408A7E"/>
<path d="M6.5 6.83325H9.75V22.2083H6.5V6.83325Z" fill="#408A7E"/>
<path d="M11.375 3.41675H4.875C4.44402 3.41675 4.0307 3.59673 3.72595 3.91711C3.4212 4.23748 3.25 4.672 3.25 5.12508V35.8751C3.25 36.3282 3.4212 36.7627 3.72595 37.0831C4.0307 37.4034 4.44402 37.5834 4.875 37.5834H11.375C11.806 37.5834 12.2193 37.4034 12.524 37.0831C12.8288 36.7627 13 36.3282 13 35.8751V5.12508C13 4.672 12.8288 4.23748 12.524 3.91711C12.2193 3.59673 11.806 3.41675 11.375 3.41675ZM11.375 35.8751H4.875V5.12508H11.375V35.8751Z" fill="#408A7E"/>
<path d="M19.5 34.1667C20.3975 34.1667 21.125 33.4018 21.125 32.4583C21.125 31.5148 20.3975 30.75 19.5 30.75C18.6025 30.75 17.875 31.5148 17.875 32.4583C17.875 33.4018 18.6025 34.1667 19.5 34.1667Z" fill="#408A7E"/>
<path d="M17.875 6.83325H21.125V22.2083H17.875V6.83325Z" fill="#408A7E"/>
<path d="M22.75 3.41675H16.25C15.819 3.41675 15.4057 3.59673 15.101 3.91711C14.7962 4.23748 14.625 4.672 14.625 5.12508V35.8751C14.625 36.3282 14.7962 36.7627 15.101 37.0831C15.4057 37.4034 15.819 37.5834 16.25 37.5834H22.75C23.181 37.5834 23.5943 37.4034 23.899 37.0831C24.2038 36.7627 24.375 36.3282 24.375 35.8751V5.12508C24.375 4.672 24.2038 4.23748 23.899 3.91711C23.5943 3.59673 23.181 3.41675 22.75 3.41675ZM22.75 35.8751H16.25V5.12508H22.75V35.8751Z" fill="#408A7E"/>
<path d="M30.875 34.1667C31.7725 34.1667 32.5 33.4018 32.5 32.4583C32.5 31.5148 31.7725 30.75 30.875 30.75C29.9775 30.75 29.25 31.5148 29.25 32.4583C29.25 33.4018 29.9775 34.1667 30.875 34.1667Z" fill="#408A7E"/>
<path d="M29.25 6.83325H32.5V22.2083H29.25V6.83325Z" fill="#408A7E"/>
<path d="M34.125 3.41675H27.625C27.194 3.41675 26.7807 3.59673 26.476 3.91711C26.1712 4.23748 26 4.672 26 5.12508V35.8751C26 36.3282 26.1712 36.7627 26.476 37.0831C26.7807 37.4034 27.194 37.5834 27.625 37.5834H34.125C34.556 37.5834 34.9693 37.4034 35.274 37.0831C35.5788 36.7627 35.75 36.3282 35.75 35.8751V5.12508C35.75 4.672 35.5788 4.23748 35.274 3.91711C34.9693 3.59673 34.556 3.41675 34.125 3.41675ZM34.125 35.8751H27.625V5.12508H34.125V35.8751Z" fill="#408A7E"/>
</svg>
